<svg width="68" height="40" viewBox="0 0 68 40" fill="none" xmlns="http://www.w3.org/2000/svg">
<g clip-path="url(#clip0_201_51)">
<path d="M4.90448 35.7622L2.38936 31.1505H0V39.8753H2.26361V35.0144L4.02419 38.1304H5.78477L7.54535 35.0144V39.8753H9.80896V31.1505H7.4196L4.90448 35.7622ZM17.3543 31.0259H14.2104C13.3301 31.0259 12.6909 31.2232 12.2926 31.6179C11.8944 32.0126 11.6953 32.6462 11.6953 33.5187V37.5072C11.6953 38.3797 11.8944 39.0132 12.2926 39.4079C12.6909 39.8026 13.3301 40 14.2104 40H17.3543C18.2346 40 18.8739 39.8026 19.2721 39.4079C19.6703 39.0132 19.8694 38.3797 19.8694 37.5072V33.5187C19.8694 32.6462 19.6703 32.0126 19.2721 31.6179C18.8739 31.2232 18.2346 31.0259 17.3543 31.0259ZM17.6058 37.5072C17.6058 38.0057 17.3543 38.255 16.8513 38.255H14.7134C14.2104 38.255 13.9589 38.0057 13.9589 37.5072V33.5187C13.9589 33.0201 14.2104 32.7708 14.7134 32.7708H16.8513C17.3543 32.7708 17.6058 33.0201 17.6058 33.5187V37.5072V37.5072ZM27.1633 34.5781H24.0194V31.1505H21.7558V39.8753H24.0194V36.3231H27.1633V39.8753H29.4269V31.1505H27.1633V34.5781ZM31.5647 39.8753H38.5442V38.1304H33.8283V36.3231H37.5381V34.5781H33.8283V32.8955H38.5442V31.1505H31.5647V39.8753ZM47.5043 35.9362C47.3663 35.7536 47.2047 35.6081 47.0205 35.4999C46.8362 35.3918 46.6511 35.313 46.4668 35.2628C46.7856 35.1381 47.0537 34.92 47.272 34.6084C47.4903 34.2968 47.5986 33.8917 47.5986 33.3932C47.5986 32.6375 47.4056 32.0741 47.0205 31.7045C46.6345 31.3349 46.031 31.1497 45.2092 31.1497H40.179V39.8745H45.5865C46.4083 39.8745 47.0117 39.6832 47.3977 39.3015C47.7829 38.9198 47.9759 38.3208 47.9759 37.5063C47.9759 37.1653 47.9322 36.8641 47.844 36.6027C47.7558 36.3413 47.6423 36.1188 47.5043 35.9362ZM42.4426 32.8955H44.5805C45.0835 32.8955 45.335 33.1448 45.335 33.6433V33.8926C45.335 34.3912 45.0835 34.6404 44.5805 34.6404H42.4426V32.8955ZM45.7123 37.3825C45.7123 37.8811 45.4608 38.1304 44.9577 38.1304H42.4426V36.3854H44.9577C45.4608 36.3854 45.7123 36.6347 45.7123 37.1333V37.3825V37.3825ZM52.1887 31.1505L48.8562 39.8753H51.3084L51.8743 38.3173H55.0182L55.5841 39.8753H58.0364L54.7038 31.1505H52.1887ZM52.4402 36.697L53.4463 33.768L54.4523 36.697H52.4402ZM64.5748 35.4506L65.7695 33.2071C65.8201 33.1153 65.8952 33.0305 65.9957 32.9517C66.0961 32.873 66.2096 32.8332 66.3354 32.8332H66.8384V31.1505C66.7292 31.1341 66.6122 31.1133 66.4864 31.0882C66.3773 31.0718 66.2559 31.057 66.1214 31.0449C65.9869 31.0328 65.8489 31.0259 65.7066 31.0259C65.2621 31.0259 64.904 31.1358 64.6316 31.3565C64.3591 31.5764 64.1303 31.8611 63.946 32.21L62.6884 34.5781H61.5566V31.1505H59.293V39.8753H61.5566V36.3231H62.6884L64.6377 39.8753H67.027L64.5748 35.4506Z" fill="#BF2738"/>
<path d="M50.464 19.3748V4.25609C50.464 4.25609 50.5723 2.293 49.6789 1.40581C48.7855 0.517747 46.8197 0.644984 46.8197 0.644984H20.5944C20.5944 0.644984 18.3683 0.592185 17.4007 1.59623C16.4619 2.57171 16.4811 4.59279 16.4811 4.59279V19.1229C16.4811 19.1229 16.3772 21.1881 17.4007 22.1619C18.453 23.1616 20.6337 23.0707 20.6337 23.0707H46.6494C46.6494 23.0707 48.6938 23.2135 49.6606 22.2753C50.6011 21.3656 50.464 19.3748 50.464 19.3748Z" fill="#BF2738"/>
<path d="M48.444 2.45934C47.9925 2.03522 47.1925 1.88721 47.1925 1.88721H41.4165C41.4165 1.88721 32.3018 17.2413 31.4049 18.2973C28.5649 21.6427 24.7626 21.7318 24.7626 21.7318H47.3855C47.3855 21.7318 48.1348 21.5847 48.5409 21.1597C48.954 20.7269 49.0221 20.0146 49.0221 20.0146V3.60447C49.0221 3.60447 48.9068 2.89385 48.444 2.45934Z" fill="#1A1A1A"/>
<path d="M38.5458 0.00785629C36.7014 -0.106397 34.5845 1.02575 34.5845 1.02575L23.4324 11.2056C23.4324 11.2056 30.3262 9.32385 31.2092 14.2601C32.4292 21.0747 24.0192 21.7775 24.0192 21.7775C24.0192 21.7775 27.7509 22.1488 30.9157 19.2051C33.8029 16.5192 41.6277 1.8991 41.6277 1.8991C41.6277 1.8991 40.2138 0.111723 38.5458 0.00785629Z" fill="white"/>
</g>
<defs>
<clipPath id="clip0_201_51">
<rect width="67.027" height="40" fill="white"/>
</clipPath>
</defs>
</svg>
